<svg xmlns="http://www.w3.org/2000/svg" width="1200" height="800" viewBox="0 0 1200 800" role="img" aria-labelledby="title desc">
  <title id="title">Parcel runner service</title>
  <desc id="desc">Parcel boxes and delivery route map for campus errand service.</desc>
  <defs>
    <linearGradient id="bg" x1="0" y1="0" x2="1" y2="1">
      <stop offset="0" stop-color="#f0fdf4"/>
      <stop offset="1" stop-color="#fff7ed"/>
    </linearGradient>
  </defs>
  <rect width="1200" height="800" fill="url(#bg)"/>
  <rect x="130" y="120" width="940" height="560" rx="36" fill="#fff" stroke="#bbf7d0" stroke-width="6"/>
  <path d="M250 560C390 410 440 510 550 360s180-40 310-170" fill="none" stroke="#10b981" stroke-width="20" stroke-linecap="round" stroke-dasharray="18 30"/>
  <circle cx="250" cy="560" r="38" fill="#10b981"/>
  <circle cx="860" cy="190" r="38" fill="#f97316"/>
  <rect x="285" y="265" width="210" height="170" rx="18" fill="#f59e0b"/>
  <path d="M285 315h210" stroke="#92400e" stroke-width="5"/>
  <path d="M390 265v170" stroke="#92400e" stroke-width="5"/>
  <rect x="660" y="390" width="230" height="180" rx="18" fill="#fb923c"/>
  <path d="M660 448h230" stroke="#9a3412" stroke-width="5"/>
  <path d="M775 390v180" stroke="#9a3412" stroke-width="5"/>
  <rect x="185" y="165" width="250" height="46" rx="23" fill="#14532d"/>
  <rect x="185" y="225" width="330" height="20" rx="10" fill="#bbf7d0"/>
  <rect x="185" y="615" width="280" height="36" rx="18" fill="#dcfce7"/>
</svg>
